<svg width="84" height="84" viewBox="0 0 84 84" fill="none" xmlns="http://www.w3.org/2000/svg">
<g clip-path="url(#clip0_53_70)">
<rect width="84" height="84" rx="42" fill="white"/>
<circle cx="42" cy="42" r="42" fill="#DEF4FF"/>
<path d="M33.8103 11.2561C33.8103 11.2561 23.6715 13.4485 24.4107 26.7625C25.1499 40.0765 22.7727 43.8313 22.7727 43.8313L25.3767 43.1089L33.8019 48.8797L56.5155 44.3353L60.0771 45.3937L61.1775 42.9073C61.1775 42.9073 62.4291 44.2513 63.6723 44.3269C63.6723 44.3269 62.5131 38.3461 62.7315 35.6749C63.1935 30.0805 60.5055 21.9409 60.5055 21.9409L33.7935 11.2561H33.8103Z" fill="#441D39"/>
<path d="M75.424 73.7523C69.6952 71.8287 56.9188 65.3943 52.576 63.1767C52.24 63.0087 51.9628 62.8575 51.736 62.7483C51.3328 62.5383 51.0976 62.4207 51.0976 62.4207H33.8188C33.8188 62.4207 33.592 62.5383 33.1804 62.7483C32.9536 62.8659 32.668 63.0087 32.3404 63.1767C31.702 63.5043 30.8872 63.9159 29.938 64.3947C24.4024 67.1835 14.3812 72.1143 9.49243 73.7523C2.53723 76.0959 2.53723 87.9735 2.53723 87.9735H82.3792C82.3792 87.9735 82.3792 76.0959 75.424 73.7523Z" fill="#FDEBD9"/>
<path d="M50.0136 54.1963H34.7928L33.81 62.4115C33.81 64.0243 37.6824 65.3347 42.4536 65.3347C47.2248 65.3347 51.0972 64.0243 51.0972 62.4115L50.022 54.1963H50.0136Z" fill="#C1735C"/>
<path d="M28.1481 25.7033C28.1481 25.7033 28.7025 21.1841 32.5329 20.3441C32.5329 20.3441 59.4717 20.3441 54.0705 20.3441C54.0705 20.3441 57.5733 20.3441 58.3041 25.3841C58.4133 26.1401 59.5305 33.8933 59.4633 36.9425C59.4213 38.8997 60.1857 37.8665 60.1857 37.8665C60.1857 37.8665 61.0089 34.7417 61.1433 30.6425C61.3953 22.8305 60.3789 9.39893 43.9065 9.39893C27.4341 9.39893 25.9137 19.2857 25.9137 32.0369L26.5185 38.3117C26.5437 38.5637 26.7537 38.7485 27.0057 38.7485C27.4845 38.7485 28.1397 25.7033 28.1397 25.7033H28.1481Z" fill="#C1735C"/>
<path d="M57.7332 24.0735C58.0533 24.0735 58.3128 23.814 58.3128 23.4939C58.3128 23.1738 58.0533 22.9143 57.7332 22.9143C57.4131 22.9143 57.1536 23.1738 57.1536 23.4939C57.1536 23.814 57.4131 24.0735 57.7332 24.0735Z" fill="#FF9988"/>
<path d="M34.1373 59.6896C34.1373 59.6896 45.9393 60.7732 50.0973 55.5988V49.6516L35.1369 51.088L34.1373 59.6896Z" fill="#A5503C"/>
<path fill-rule="evenodd" clip-rule="evenodd" d="M43.695 56.5822C51.6829 56.5822 58.4011 49.6431 60.3518 40.2298C60.715 40.1313 60.8808 40.0504 60.8808 40.0504C62.6448 39.111 63.594 36.9387 63.3252 34.1123C63.1397 32.1617 61.666 31.729 60.7705 31.6481C59.6437 20.8942 52.4282 12.5999 43.695 12.5999C34.7816 12.5999 27.4492 21.2399 26.5576 32.3167C26.1346 32.3091 23.6188 32.3736 23.5265 34.9774C23.4257 37.8207 24.5093 39.9259 26.3237 40.7562C26.3237 40.7562 26.5963 40.8686 27.2012 40.9642C29.3416 50.0018 35.9163 56.5822 43.695 56.5822Z" fill="#C1735C"/>
<path d="M51.2901 36.3207C51.8514 36.3207 52.3065 35.531 52.3065 34.5567C52.3065 33.5825 51.8514 32.7927 51.2901 32.7927C50.7287 32.7927 50.2737 33.5825 50.2737 34.5567C50.2737 35.531 50.7287 36.3207 51.2901 36.3207Z" fill="#441D39"/>
<path d="M36.0446 35.9596C36.6059 35.9596 37.061 35.1699 37.061 34.1956C37.061 33.2214 36.6059 32.4316 36.0446 32.4316C35.4833 32.4316 35.0282 33.2214 35.0282 34.1956C35.0282 35.1699 35.4833 35.9596 36.0446 35.9596Z" fill="#441D39"/>
<path d="M44.3438 42.4864H42.7394C42.0254 42.4864 41.3954 42.2092 41.0594 41.7556C40.8158 41.428 40.7486 41.0416 40.8662 40.6636C41.2274 39.4876 41.723 36.2956 41.7314 36.262C41.765 36.0352 41.9834 35.884 42.2102 35.9092C42.437 35.9428 42.5966 36.1612 42.563 36.388C42.5462 36.5224 42.0506 39.6808 41.6726 40.9072C41.639 41.0248 41.6558 41.1424 41.7398 41.26C41.9162 41.5036 42.311 41.6548 42.7478 41.6548H44.3522C44.5874 41.6548 44.7722 41.8396 44.7722 42.0748C44.7722 42.31 44.5874 42.4948 44.3522 42.4948L44.3438 42.4864Z" fill="#A5503C"/>
<path d="M52.1889 39.0847C53.808 39.0847 55.1205 38.7839 55.1205 38.4127C55.1205 38.0416 53.808 37.7407 52.1889 37.7407C50.5699 37.7407 49.2573 38.0416 49.2573 38.4127C49.2573 38.7839 50.5699 39.0847 52.1889 39.0847Z" fill="#AF5D4E"/>
<path d="M35.0788 39.0847C36.6979 39.0847 38.0104 38.7839 38.0104 38.4127C38.0104 38.0416 36.6979 37.7407 35.0788 37.7407C33.4597 37.7407 32.1472 38.0416 32.1472 38.4127C32.1472 38.7839 33.4597 39.0847 35.0788 39.0847Z" fill="#AF5D4E"/>
<path d="M54.9027 30.2652C52.0635 29.6184 49.9551 30.2652 48.6699 30.5172C48.1239 30.6264 47.9559 29.946 47.9559 29.946C47.8215 29.4924 48.4179 29.1312 48.8547 29.0304C50.3079 28.6692 52.1727 28.4172 55.0119 29.2152C55.5579 29.3664 55.6167 29.82 55.6167 29.82C55.5831 30.324 55.2723 30.3576 54.9027 30.2652Z" fill="#441D39"/>
<path d="M32.2563 30.1468C35.1207 29.6092 37.2039 30.3484 38.4807 30.6424C39.0267 30.7684 39.2115 30.1048 39.2115 30.1048C39.3627 29.6596 38.7831 29.2732 38.3547 29.1472C36.9183 28.7356 35.0619 28.408 32.1891 29.0884C31.6347 29.2228 31.5591 29.668 31.5591 29.668C31.5675 30.172 31.8783 30.214 32.2563 30.1468Z" fill="#441D39"/>
<path d="M43.0671 48.8706C41.0763 48.8706 39.5055 48.4506 39.3963 48.4254C39.1695 48.3666 39.0435 48.1314 39.1023 47.913C39.1611 47.6862 39.3963 47.5602 39.6147 47.619C39.6567 47.6274 43.5207 48.6522 46.6371 47.4342C46.8555 47.3502 47.0991 47.4594 47.1831 47.6694C47.2671 47.8878 47.1579 48.1314 46.9479 48.2154C45.6627 48.7194 44.2851 48.879 43.0671 48.879V48.8706Z" fill="#A5503C"/>
<path d="M55.5496 10.828C44.0248 1.714 33.8104 11.2564 33.8104 11.2564C23.7052 13.1044 25.1416 28.0228 25.3852 29.6188C25.6288 31.2064 25.9396 32.3068 25.9396 32.3068C26.158 32.3152 26.3596 32.3068 26.5528 32.2648L27.4096 38.4136C27.4684 38.632 27.796 38.6488 27.8716 38.4136C27.9472 38.3296 28.1824 34.7344 28.4092 30.9796C30.3244 28.1488 30.2404 21.5212 33.8104 18.556C35.5576 17.1028 38.0104 18.2452 38.0104 18.2452C38.0104 18.2452 39.8416 15.0112 44.2012 16.8928C48.124 18.5812 52.9455 29.224 58.2627 31.7524C58.4727 35.2132 58.6828 38.338 58.75 38.422C58.8256 38.6572 59.1532 38.6404 59.212 38.422L60.0688 32.2816L62.5048 31.0132C62.5048 31.0132 63.6051 15.8596 55.5327 10.8364L55.5496 10.828Z" fill="#441D39"/>
<path d="M75.4235 73.7526C72.3995 72.7362 67.41 70.4598 62.7311 68.217L49.6776 72.8454V85.3362H48.8376V73.1394L46.1328 74.097V87.9654H82.3787C82.3787 87.9654 82.3787 76.0878 75.4235 73.7442V73.7526Z" fill="#4598C4"/>
<path d="M56.4816 63.3363C52.3488 61.9167 46.1328 74.0967 46.1328 74.0967L48.8376 73.1391V85.3359H49.6776V72.8451L62.7311 68.2167L62.7816 68.1999C62.7816 68.1999 60.6228 64.7559 56.49 63.3363H56.4816Z" fill="#2B7FA5"/>
<path d="M36.2964 73.197L34.356 84.999L33.5244 84.8646L35.49 72.9114L22.2012 68.199C17.514 70.4502 12.5076 72.735 9.47522 73.7514C2.52002 76.095 2.52002 87.9726 2.52002 87.9726H38.6652L38.85 74.1042L36.2964 73.197Z" fill="#4598C4"/>
<path d="M28.5016 63.3362C24.3772 64.7474 22.2184 68.183 22.21 68.1998L35.4988 72.9122L33.5332 84.8654L34.3648 84.9998L36.3052 73.1978L38.8588 74.105C38.8588 74.105 32.6344 61.925 28.51 63.3446L28.5016 63.3362Z" fill="#2B7FA5"/>
</g>
<defs>
<clipPath id="clip0_53_70">
<rect width="84" height="84" rx="42" fill="white"/>
</clipPath>
</defs>
</svg>
