<svg width="84" height="84" viewBox="0 0 84 84" fill="none" xmlns="http://www.w3.org/2000/svg">
<g clip-path="url(#clip0_53_271)">
<rect width="84" height="84" rx="42" fill="white"/>
<circle cx="42" cy="42" r="42" fill="#DEF4FF"/>
<path d="M59.9171 32.4483C59.9171 32.4483 62.8907 32.0871 63.1595 34.9179C63.4283 37.7487 62.4791 39.9243 60.7151 40.8651C60.7151 40.8651 60.3371 41.0499 59.4719 41.2011L59.9171 32.4567V32.4483Z" fill="#FFB69F"/>
<path d="M26.2751 32.4483C26.2751 32.4483 23.3015 32.0871 23.0327 34.9179C22.7639 37.7487 23.7131 39.9243 25.4771 40.8651C25.4771 40.8651 25.8551 41.0499 26.7203 41.2011L26.2751 32.4567V32.4483Z" fill="#FFB69F"/>
<path d="M2.52002 87.9738C2.52002 87.9738 2.52002 76.0962 9.47522 73.7526C16.4304 71.409 32.1468 62.4126 32.1468 62.4126H42.7812V87.9738H2.52002Z" fill="#F49037"/>
<path d="M82.3867 87.9738C82.3867 87.9738 82.3867 76.0962 75.4315 73.7526C68.4763 71.409 52.9279 62.4126 52.9279 62.4126H42.1255V87.9738H82.3867Z" fill="#F49037"/>
<path d="M34.7928 54.1963L33.81 62.4115H51.0972L50.022 54.1963H34.7928Z" fill="#FFB69F"/>
<path d="M42.4536 67.3267C47.2273 67.3267 51.0972 65.6457 51.0972 63.5719C51.0972 61.4982 47.2273 59.8171 42.4536 59.8171C37.6799 59.8171 33.81 61.4982 33.81 63.5719C33.81 65.6457 37.6799 67.3267 42.4536 67.3267Z" fill="#FFB69F"/>
<path d="M34.1373 59.6899C34.1373 59.6899 45.9393 60.7735 50.0973 55.5991V49.6519L35.1369 51.0883L34.1373 59.6899Z" fill="#FF9988"/>
<path d="M43.1593 56.5823C52.6743 56.5823 60.3877 46.7215 60.3877 34.5575C60.3877 22.3936 52.6743 12.5327 43.1593 12.5327C33.6443 12.5327 25.9309 22.3936 25.9309 34.5575C25.9309 46.7215 33.6443 56.5823 43.1593 56.5823Z" fill="#FFB69F"/>
<path d="M58.2037 16.9686C58.2037 16.9686 58.2205 16.9266 58.2037 16.9014C57.6325 15.5322 56.9353 8.65256 45.7297 7.61096C42.8569 7.34216 38.7493 7.82096 36.1453 9.06416C32.5753 10.761 28.5853 11.7354 25.0573 11.727C24.9061 11.727 24.8473 11.9286 24.9817 12.0042L27.7369 14.1966C27.8461 14.2554 27.8377 14.415 27.7201 14.4654L24.2593 15.5154C24.1333 15.5658 24.1333 15.7506 24.2593 15.7926C24.8221 15.9774 26.2501 16.6074 27.5437 17.0526C25.4269 20.799 25.9141 26.1834 25.9141 32.6514C25.9141 32.6514 25.8469 39.3546 28.1065 47.0406C30.5761 55.4406 35.9941 59.0442 43.6297 59.0694C51.7609 59.103 56.0029 52.131 57.1369 49.653C58.8673 45.8562 60.3541 38.8002 60.3625 34.5582C60.3625 34.5582 63.4873 23.8398 58.1869 16.9686H58.2037ZM51.2989 48.0906C49.6189 48.9474 50.4673 44.487 47.1241 44.3022C46.0069 44.235 42.2101 43.9746 39.0181 44.2434C36.5905 44.4534 36.0025 46.6374 35.8933 47.7462C35.8429 48.225 35.6749 48.4434 35.2213 48.2754C34.2133 47.9058 32.0713 46.713 31.0633 45.6042C30.0217 44.4618 28.1401 41.379 27.9637 34.869L28.1485 25.5702C28.1485 25.5702 31.8865 22.437 32.5333 20.211C32.5333 20.211 49.2325 22.8822 54.0709 20.211C54.0709 20.211 56.0953 24.0834 58.3045 25.251C58.9849 25.6038 58.8673 30.0222 58.8085 33.0714C58.7497 33.483 58.6993 33.9534 58.6741 34.5078C58.2289 43.2186 52.9621 47.2422 51.2905 48.099L51.2989 48.0906Z" fill="#B54D4D"/>
<path d="M51.2991 36.3207C51.8605 36.3207 52.3155 35.531 52.3155 34.5567C52.3155 33.5825 51.8605 32.7927 51.2991 32.7927C50.7378 32.7927 50.2827 33.5825 50.2827 34.5567C50.2827 35.531 50.7378 36.3207 51.2991 36.3207Z" fill="#441D39"/>
<path d="M36.0528 35.9599C36.6141 35.9599 37.0692 35.1701 37.0692 34.1959C37.0692 33.2217 36.6141 32.4319 36.0528 32.4319C35.4914 32.4319 35.0364 33.2217 35.0364 34.1959C35.0364 35.1701 35.4914 35.9599 36.0528 35.9599Z" fill="#441D39"/>
<path d="M44.3438 42.4872H42.7394C42.0254 42.4872 41.3954 42.21 41.0594 41.748C40.8158 41.4204 40.7486 41.034 40.8662 40.656C41.2274 39.4968 41.6978 35.1708 41.6978 35.1288C41.723 34.8936 41.9246 34.734 42.1598 34.7592C42.3866 34.7844 42.5546 34.9944 42.5294 35.2212C42.5126 35.406 42.0422 39.6648 41.6642 40.908C41.6306 41.034 41.6474 41.1432 41.7314 41.2608C41.9078 41.496 42.3026 41.6556 42.7394 41.6556H44.3438C44.579 41.6556 44.7638 41.8404 44.7638 42.0756C44.7638 42.3108 44.579 42.4956 44.3438 42.4956V42.4872Z" fill="#FF9988"/>
<path d="M52.1889 39.0847C53.808 39.0847 55.1205 38.7839 55.1205 38.4127C55.1205 38.0416 53.808 37.7407 52.1889 37.7407C50.5698 37.7407 49.2573 38.0416 49.2573 38.4127C49.2573 38.7839 50.5698 39.0847 52.1889 39.0847Z" fill="#FF9988"/>
<path d="M35.078 39.0847C36.6971 39.0847 38.0096 38.7839 38.0096 38.4127C38.0096 38.0416 36.6971 37.7407 35.078 37.7407C33.4589 37.7407 32.1464 38.0416 32.1464 38.4127C32.1464 38.7839 33.4589 39.0847 35.078 39.0847Z" fill="#FF9988"/>
<path d="M54.86 30.4575C52.0628 29.6343 49.9208 30.1551 48.6188 30.3231C48.0644 30.3903 47.9468 29.7099 47.9468 29.7099C47.8376 29.2479 48.4592 28.9287 48.896 28.8447C50.366 28.5759 52.2476 28.4415 55.0364 29.4075C55.574 29.5923 55.6076 30.0459 55.6076 30.0459C55.5488 30.5499 55.2296 30.5583 54.86 30.4491V30.4575Z" fill="#B54D4D"/>
<path d="M32.3397 30.5091C35.1201 29.6355 37.2705 30.1227 38.5725 30.2655C39.1269 30.3243 39.2361 29.6439 39.2361 29.6439C39.3369 29.1819 38.7069 28.8711 38.2701 28.7955C36.7917 28.5519 34.9101 28.4427 32.1465 29.4591C31.6089 29.6523 31.5837 30.1059 31.5837 30.1059C31.6509 30.6099 31.9701 30.6099 32.3313 30.5007L32.3397 30.5091Z" fill="#B54D4D"/>
<path d="M43.0669 49.3086C41.0845 49.3086 39.5053 48.8886 39.4045 48.8634C39.1777 48.8046 39.0517 48.5694 39.1105 48.351C39.1693 48.1326 39.4045 47.9982 39.6229 48.057C39.6649 48.0654 43.5289 49.0902 46.6453 47.8722C46.8637 47.7882 47.1073 47.8974 47.1913 48.1074C47.2753 48.3258 47.1661 48.5694 46.9561 48.6534C45.6709 49.1574 44.2933 49.317 43.0753 49.317L43.0669 49.3086Z" fill="#9B3D3D"/>
<path d="M34.1796 59.7317L40.866 64.5029L37.632 72.2477L28.98 64.1921L34.1796 59.7317Z" fill="#FFA242"/>
<path d="M40.866 64.5029L41.2692 67.3673L39.7488 67.1741L40.866 64.5029Z" fill="#F49037"/>
<path d="M44.6798 64.3521L44.0918 67.3676L45.7382 67.0905L44.6798 64.3521Z" fill="#F49037"/>
<path d="M44.6798 64.3522L50.8034 59.8582L56.5406 64.4614L48.0062 72.9874L44.6798 64.3522Z" fill="#FFA242"/>
<path d="M44.0831 68.468H41.2691V87.9644H44.0831V68.468Z" fill="white"/>
<path d="M41.2102 66.9654L41.269 68.679C41.269 68.679 42.5794 69.2502 44.083 68.679L44.125 67.125L41.2018 66.957L41.2102 66.9654Z" fill="#FFB69F"/>
<path d="M44.0831 72.5845H41.2691V73.4245H44.0831V72.5845Z" fill="#D6D6D6"/>
<path d="M44.0831 76.3726H41.2691V77.2126H44.0831V76.3726Z" fill="#D6D6D6"/>
<path d="M44.0831 80.1609H41.2691V81.0009H44.0831V80.1609Z" fill="#D6D6D6"/>
<path d="M44.0831 83.949H41.2691V84.789H44.0831V83.949Z" fill="#D6D6D6"/>
<path d="M46.4774 77.1881C46.8856 77.1881 47.2166 76.8572 47.2166 76.4489C47.2166 76.0407 46.8856 75.7097 46.4774 75.7097C46.0691 75.7097 45.7382 76.0407 45.7382 76.4489C45.7382 76.8572 46.0691 77.1881 46.4774 77.1881Z" fill="#FFA242"/>
<path d="M46.4774 85.4357C46.8856 85.4357 47.2166 85.1047 47.2166 84.6965C47.2166 84.2882 46.8856 83.9573 46.4774 83.9573C46.0691 83.9573 45.7382 84.2882 45.7382 84.6965C45.7382 85.1047 46.0691 85.4357 46.4774 85.4357Z" fill="#FFA242"/>
</g>
<defs>
<clipPath id="clip0_53_271">
<rect width="84" height="84" rx="42" fill="white"/>
</clipPath>
</defs>
</svg>
