<svg width="84" height="84" viewBox="0 0 84 84" fill="none" xmlns="http://www.w3.org/2000/svg">
<g clip-path="url(#clip0_412_741)">
<rect width="84" height="84" rx="42" fill="white"/>
<circle cx="42" cy="42" r="42" fill="#DEF4FF"/>
<path d="M75.4236 73.7527C68.4684 71.4091 51.0888 62.4127 51.0888 62.4127H33.81C33.81 62.4127 16.4388 71.4091 9.47519 73.7527C2.51999 76.0963 2.51999 87.9739 2.51999 87.9739H82.3872C82.3872 87.9739 82.3872 76.0963 75.432 73.7527H75.4236Z" fill="#424777"/>
<path fill-rule="evenodd" clip-rule="evenodd" d="M33.6591 63.7221L34.7931 54.1965H50.0223L51.1983 63.2181L49.5847 63.2645L45.5697 65.9909L43.6377 85.0084L40.4457 66.226L37.3756 63.6153L33.6591 63.7221Z" fill="#C1735C"/>
<path d="M34.1373 59.69C34.1373 59.69 45.9393 60.7736 50.0973 55.5992V49.652L35.1369 51.0884L34.1373 59.69V59.69Z" fill="#A5503C"/>
<path d="M34.0114 60.7491L28.3246 65.1927L35.9938 72.6771L40.4458 66.2259L34.0114 60.7491Z" fill="#515882"/>
<path d="M45.57 65.9906L50.8872 60.8246L56.07 64.9238L49.2072 72.4334L45.57 65.9906Z" fill="#515882"/>
<path d="M38.9507 5.42667C37.8503 2.70507 32.6591 1.04187 32.6591 1.04187C33.9443 9.55107 38.8331 7.71987 38.8331 7.71987C38.9339 7.51827 39.0011 7.31667 39.0599 7.12347C42.8903 9.25707 46.0823 1.42827 46.0823 1.42827C40.7483 1.81467 39.2867 3.89787 38.9507 5.42667V5.42667Z" fill="#FF7C59"/>
<path fill-rule="evenodd" clip-rule="evenodd" d="M43.1593 56.5824C50.874 56.5824 57.4043 50.1001 59.5993 41.1636C60.321 41.0211 60.6396 40.8653 60.6396 40.8653C62.4036 39.9245 63.3528 37.7489 63.084 34.9181C62.8822 32.7937 61.1572 32.467 60.3088 32.4363C59.4739 21.2676 52.1145 12.5328 43.1593 12.5328C34.2047 12.5328 26.8457 21.2664 26.0099 32.434C25.2752 32.4234 23.2522 32.6066 23.0327 34.9181C22.7639 37.7489 23.7131 39.9245 25.4771 40.8653C25.4771 40.8653 25.8551 41.0501 26.7203 41.2013L26.7181 41.1589C28.912 50.0978 35.4433 56.5824 43.1593 56.5824Z" fill="#C1735C"/>
<path d="M43.1591 11.239C24.6791 10.9786 25.9307 32.575 25.9307 32.575L43.1591 33.835L60.3875 32.575C60.3875 32.575 61.6391 10.9786 43.1591 11.239V11.239Z" fill="#C1735C"/>
<path d="M31.3486 30.1398C34.1878 29.6274 36.6994 30.0306 37.9762 30.2742C38.3626 30.3498 38.749 30.165 38.8666 29.8458C39.001 29.4846 38.749 29.115 38.3122 29.031C36.859 28.7538 34.2466 28.3338 31.5082 29.2914C31.0882 29.4426 30.3406 29.8542 30.5674 30.1818C30.6934 30.2994 30.9706 30.1986 31.3486 30.1314V30.1398Z" fill="#441D39"/>
<path d="M55.1462 30.1485C52.307 29.6361 49.7954 30.0393 48.5186 30.2829C48.1322 30.3585 47.7458 30.1653 47.6282 29.8461C47.4938 29.4849 47.7458 29.1069 48.1826 29.0229C49.6358 28.7373 52.2482 28.3173 54.9866 29.2917C55.4066 29.4429 56.1542 29.8545 55.9274 30.1905C55.8014 30.3081 55.5242 30.2073 55.1462 30.1401V30.1485Z" fill="#441D39"/>
<path d="M51.2991 36.3208C51.8604 36.3208 52.3155 35.5311 52.3155 34.5568C52.3155 33.5826 51.8604 32.7928 51.2991 32.7928C50.7377 32.7928 50.2827 33.5826 50.2827 34.5568C50.2827 35.5311 50.7377 36.3208 51.2991 36.3208Z" fill="#441D39"/>
<path d="M36.0527 35.96C36.6141 35.96 37.0691 35.1702 37.0691 34.196C37.0691 33.2218 36.6141 32.432 36.0527 32.432C35.4914 32.432 35.0363 33.2218 35.0363 34.196C35.0363 35.1702 35.4914 35.96 36.0527 35.96Z" fill="#441D39"/>
<path d="M44.3519 42.487H42.7475C42.0335 42.487 41.4035 42.2097 41.0675 41.7561C40.8239 41.4285 40.7567 41.0422 40.8743 40.6642C41.2439 39.4546 41.5547 38.3121 41.5547 38.3037C41.6135 38.0769 41.8403 37.951 42.0671 38.0098C42.2939 38.0686 42.4283 38.3038 42.3611 38.5222C42.3611 38.5222 42.0503 39.6898 41.6723 40.9078C41.6387 41.0254 41.6555 41.1429 41.7395 41.2605C41.9159 41.5041 42.3107 41.6554 42.7475 41.6554H44.3519C44.5871 41.6554 44.7719 41.8402 44.7719 42.0754C44.7719 42.3106 44.5871 42.4953 44.3519 42.4953V42.487Z" fill="#A5503C"/>
<path d="M40.69 47.9634C39.9088 47.9634 39.3964 47.9214 39.3376 47.913C39.1024 47.8962 38.9344 47.6862 38.9512 47.4594C38.968 47.2326 39.1696 47.0562 39.4048 47.073C39.4552 47.073 44.1928 47.4594 47.704 45.729C47.914 45.6282 48.166 45.7122 48.2668 45.9222C48.3676 46.1322 48.2836 46.3842 48.0736 46.485C45.5032 47.7534 42.4204 47.955 40.6816 47.955L40.69 47.9634Z" fill="#A5503C"/>
<path d="M52.1388 39.085C53.7579 39.085 55.0704 38.7841 55.0704 38.413C55.0704 38.0418 53.7579 37.741 52.1388 37.741C50.5198 37.741 49.2072 38.0418 49.2072 38.413C49.2072 38.7841 50.5198 39.085 52.1388 39.085Z" fill="#AF5D4E"/>
<path d="M35.0362 39.085C36.6552 39.085 37.9678 38.7841 37.9678 38.413C37.9678 38.0418 36.6552 37.741 35.0362 37.741C33.4171 37.741 32.1046 38.0418 32.1046 38.413C32.1046 38.7841 33.4171 39.085 35.0362 39.085Z" fill="#AF5D4E"/>
<path d="M54.3982 19.3285C54.3982 19.3285 59.4886 28.5097 60.379 32.5753C60.379 32.5753 63.1342 20.3365 56.641 13.7173L54.3982 19.3201V19.3285Z" fill="#FF7C59"/>
<path d="M25.9305 32.5761L27.7617 25.5873H25.5273L25.9305 32.5761Z" fill="#FF7C59"/>
<path d="M53.8186 10.0971C53.8186 10.0971 53.8186 10.0551 53.8186 10.0383C53.8186 8.08112 52.231 6.50192 50.2822 6.50192C49.8538 6.50192 49.459 6.58592 49.081 6.72872C48.0394 5.62832 46.4098 4.91432 44.5618 4.91432C42.8566 4.91432 41.3278 5.52752 40.2778 6.49352C39.1774 5.82992 37.8166 5.42672 36.3466 5.42672C35.725 5.42672 35.1286 5.50232 34.5574 5.62832C33.7258 4.90592 32.6506 4.46912 31.4662 4.46912C29.6014 4.46912 27.997 5.55272 27.2326 7.12352C26.7706 6.73712 26.1826 6.50192 25.5358 6.50192C24.0574 6.50192 22.8646 7.70312 22.8646 9.17312C22.8646 9.33272 22.8814 9.48392 22.915 9.63512C20.0002 9.67712 17.6482 12.0543 17.6482 14.9775C17.6482 16.7499 18.5134 18.3207 19.849 19.2951C19.3534 20.1015 19.0678 21.0507 19.0678 22.0755C19.0678 25.0323 21.4618 27.4263 24.4186 27.4263C27.3754 27.4263 29.7694 25.0323 29.7694 22.0755C29.7694 22.0167 29.7694 21.9579 29.761 21.8991C30.475 22.2519 31.273 22.4535 32.1214 22.4535C34.9522 22.4535 37.2622 20.2527 37.4554 17.4807C38.4214 18.4635 39.7654 19.0683 41.2522 19.0683C43.4614 19.0683 45.3598 17.7243 46.1746 15.8091C46.6198 18.3207 48.8038 20.2275 51.4414 20.2275C54.3982 20.2275 56.7922 17.8335 56.7922 14.8767C56.7922 12.7851 55.591 10.9791 53.8354 10.0971H53.8186Z" fill="#441D39"/>
</g>
<defs>
<clipPath id="clip0_412_741">
<rect width="84" height="84" rx="42" fill="white"/>
</clipPath>
</defs>
</svg>
