<svg width="84" height="84" viewBox="0 0 84 84" fill="none" xmlns="http://www.w3.org/2000/svg">
<g clip-path="url(#clip0_412_774)">
<rect width="84" height="84" rx="42" fill="white"/>
<circle cx="42" cy="42" r="42" fill="#DEF4FF"/>
<path d="M74.1132 58.3708C77.0028 51.3148 72.3072 50.5924 67.4184 46.9468C62.5296 43.3012 70.4928 41.7388 72.1224 37.9924C73.752 34.246 70.854 31.6084 67.242 29.6176C63.6216 27.6268 58.3632 19.882 58.3632 19.882L58.128 19.7728C60.858 25.2496 60.7404 31.5076 60.6984 32.44C61.572 32.4904 63.2016 32.8516 63.4032 34.918C63.672 37.7488 62.7228 39.9244 60.9588 40.8652C60.9588 40.8652 60.6228 41.0164 59.9088 41.1592C57.7164 50.0968 51.1896 56.59 43.47 56.59C35.7504 56.59 29.2152 50.0968 27.0312 41.1424V41.2012C26.166 41.05 25.788 40.8652 25.788 40.8652C24.024 39.9244 23.0748 37.7488 23.3436 34.918C23.5536 32.6836 25.452 32.44 26.2416 32.4316C26.2248 31.9108 26.1828 29.8024 26.586 27.1144C25.2504 27.7696 21.2436 29.9368 21.3192 32.4316C21.42 35.4304 22.2768 39.5464 18.4212 40.6636C14.5656 41.7808 14.4312 48.9628 16.0524 52.6084C17.6736 56.254 18.7656 58.5472 13.6752 60.7732C8.58476 62.9992 14.2464 67.2328 13.7004 75.364C13.1544 83.4952 20.5716 79.8916 35.3388 77.1784C50.106 74.4652 60.7152 78.0856 68.6784 77.1784C76.6332 76.2712 75.7344 73.7512 72.8364 70.0048C69.9384 66.2584 71.2068 65.4268 74.1048 58.3708H74.1132Z" fill="#441D39"/>
<path d="M45.9313 14.0699L58.1365 19.7735C55.8433 15.1787 51.5425 11.1299 43.4785 11.2391C31.0633 11.0627 27.5605 20.7479 26.5945 27.1151C26.8633 26.9807 27.0313 26.9051 27.0313 26.9051L45.9313 14.0615V14.0699Z" fill="#C1735C"/>
<path d="M75.7427 73.7527C68.7875 71.4091 51.4079 62.4127 51.4079 62.4127H34.1291C34.1291 62.4127 16.7579 71.4091 9.79431 73.7527C2.83911 76.0963 2.83911 87.9739 2.83911 87.9739H82.7063C82.7063 87.9739 82.7063 76.0963 75.7511 73.7527H75.7427Z" fill="#4598C4"/>
<path d="M50.3414 54.1964H35.1122L33.9782 63.722L42.9326 82.916L51.5174 63.218L50.3414 54.1964Z" fill="#C1735C"/>
<path d="M35.137 53.8273L34.4566 59.6905C34.4566 59.6905 46.2586 60.7741 50.4166 55.5997V54.7177C48.2914 55.9189 45.9478 56.5909 43.4698 56.5909C40.4458 56.5909 37.6066 55.5829 35.137 53.8273Z" fill="#A5503C"/>
<path d="M63.4114 34.9189C63.2182 32.8525 61.5802 32.4913 60.7066 32.4409C60.7402 31.5085 60.8662 25.2505 58.1362 19.7737L45.931 14.0701L27.031 26.9137C27.031 26.9137 26.863 26.9893 26.5942 27.1237C26.1826 29.8117 26.2246 31.9201 26.2498 32.4409C25.4602 32.4409 23.5618 32.6929 23.3518 34.9273C23.083 37.7581 24.0322 39.9337 25.7962 40.8745C25.7962 40.8745 26.1742 41.0593 27.0394 41.2105V41.1517C28.3666 46.5949 31.3066 51.1225 35.1454 53.8357C37.615 55.5913 40.4542 56.5993 43.4782 56.5993C45.9478 56.5993 48.2998 55.9273 50.425 54.7261C54.9358 52.1809 58.4302 47.2417 59.917 41.1685C60.6394 41.0257 60.967 40.8745 60.967 40.8745C62.731 39.9337 63.6802 37.7581 63.4114 34.9273V34.9189Z" fill="#C1735C"/>
<path d="M31.6175 29.7701C34.4987 29.5685 36.9515 30.2405 38.1947 30.6185C38.5727 30.7361 38.9675 30.5849 39.1271 30.2909C39.2951 29.9465 39.0851 29.5517 38.6651 29.4173C37.2539 28.9805 34.7003 28.2833 31.8695 28.9469C31.4327 29.0477 30.6515 29.3753 30.8363 29.7365C30.9455 29.8625 31.2395 29.8037 31.6175 29.7785V29.7701Z" fill="#441D39"/>
<path d="M55.4984 29.9122C52.6256 29.593 50.156 30.1726 48.896 30.5086C48.518 30.6094 48.1232 30.4498 47.9804 30.139C47.8208 29.7862 48.0476 29.3914 48.476 29.2822C49.904 28.8958 52.4828 28.2994 55.2884 29.0722C55.7168 29.1898 56.4896 29.551 56.288 29.9038C56.1704 30.0298 55.8848 29.9542 55.5068 29.9038L55.4984 29.9122Z" fill="#441D39"/>
<path d="M51.6182 36.3208C52.1795 36.3208 52.6346 35.5311 52.6346 34.5568C52.6346 33.5826 52.1795 32.7928 51.6182 32.7928C51.0569 32.7928 50.6018 33.5826 50.6018 34.5568C50.6018 35.5311 51.0569 36.3208 51.6182 36.3208Z" fill="#441D39"/>
<path d="M36.3719 35.9599C36.9332 35.9599 37.3883 35.1701 37.3883 34.1959C37.3883 33.2217 36.9332 32.4319 36.3719 32.4319C35.8105 32.4319 35.3555 33.2217 35.3555 34.1959C35.3555 35.1701 35.8105 35.9599 36.3719 35.9599Z" fill="#441D39"/>
<path d="M44.671 42.4871H43.0666C42.3526 42.4871 41.7226 42.2099 41.3866 41.7479C41.143 41.4203 41.0758 41.0339 41.1934 40.6559C41.563 39.4547 41.8738 38.3038 41.8738 38.2954C41.9326 38.0686 42.1594 37.9427 42.3862 38.0015C42.613 38.0603 42.7474 38.2954 42.6802 38.5138C42.6802 38.5138 42.3694 39.6814 41.9914 40.8994C41.9578 41.0254 41.9746 41.1347 42.0586 41.2523C42.235 41.4959 42.6298 41.6471 43.0666 41.6471H44.671C44.9062 41.6471 45.091 41.8319 45.091 42.0671C45.091 42.3023 44.9062 42.4871 44.671 42.4871V42.4871Z" fill="#A5503C"/>
<path d="M43.1342 47.7709C41.177 47.7709 39.6902 47.5021 39.581 47.4769C39.3542 47.4349 39.203 47.2165 39.245 46.9897C39.287 46.7629 39.5054 46.6117 39.7322 46.6537C39.7742 46.6537 44.4614 47.5189 48.1238 46.1497C48.3422 46.0657 48.5858 46.1749 48.6614 46.3933C48.7454 46.6117 48.6278 46.8553 48.4178 46.9309C46.6622 47.5861 44.7386 47.7709 43.1258 47.7709H43.1342Z" fill="#A5503C"/>
<path d="M52.458 39.085C54.077 39.085 55.3896 38.7841 55.3896 38.413C55.3896 38.0418 54.077 37.741 52.458 37.741C50.8389 37.741 49.5264 38.0418 49.5264 38.413C49.5264 38.7841 50.8389 39.085 52.458 39.085Z" fill="#AF5D4E"/>
<path d="M35.3553 39.085C36.9744 39.085 38.2869 38.7841 38.2869 38.413C38.2869 38.0418 36.9744 37.741 35.3553 37.741C33.7362 37.741 32.4237 38.0418 32.4237 38.413C32.4237 38.7841 33.7362 39.085 35.3553 39.085Z" fill="#AF5D4E"/>
<path d="M25.6364 27.6693L25.6868 28.0641L23.3012 30.5421L21.47 35.9601C21.47 35.9601 23.612 42.9069 26.6612 47.2161C29.702 51.5337 28.316 45.0153 27.0308 41.1345C25.7456 37.2537 28.148 37.2033 28.7108 34.5573C29.0636 32.8857 28.442 31.3485 27.938 30.4497C27.4928 28.9125 27.8876 27.0645 29.996 26.4933C34.9352 25.1409 31.7012 16.9509 31.7012 16.9509C28.862 18.7737 26.3924 26.1321 25.6448 27.6609L25.6364 27.6693Z" fill="#441D39"/>
<path d="M63.4533 30.5422L61.7061 30.6766C60.9921 26.989 59.4213 19.7146 58.0017 18.9586C56.0865 17.9422 53.9109 19.597 53.9109 19.597C53.9109 19.597 55.0029 25.5526 57.3969 26.8966C58.8165 27.6946 58.8081 29.4922 58.8417 30.8194C58.0185 35.1118 55.8849 39.883 60.6981 44.1922C65.9481 48.8878 67.0821 36.3214 67.0821 36.3214L63.4533 30.5422V30.5422Z" fill="#441D39"/>
<path d="M60.833 12.584C58.1198 8.07321 47.687 5.83881 39.0014 7.61121L38.4218 5.65401C38.3126 5.29281 37.9346 5.08281 37.565 5.19201C37.2038 5.30121 36.9938 5.67921 37.103 6.04881L37.6574 7.93881C30.9458 9.69441 23.957 14.6924 20.891 20.9756C17.7326 27.4436 25.6958 27.5864 25.6958 27.5864C32.4746 17.3636 58.3634 19.8836 58.3634 19.8836C59.867 19.5644 63.6218 17.2376 60.8246 12.5924L60.833 12.584Z" fill="#FF7C59"/>
<path d="M30.1308 69.5184C29.9712 69.5184 29.82 69.4344 29.7528 69.2832C29.652 69.0732 29.7444 68.8212 29.946 68.7204L33.1128 67.2C33.3228 67.0992 33.5748 67.1916 33.6756 67.4016C33.7764 67.6116 33.684 67.8636 33.4824 67.9644L30.3156 69.4848C30.2568 69.51 30.198 69.5268 30.1308 69.5268V69.5184Z" fill="#2A5E70"/>
<path d="M31.5754 74.5159C31.4158 74.5159 31.2646 74.4319 31.1974 74.2807C31.0966 74.0707 31.189 73.8187 31.3906 73.7179L34.5574 72.1974C34.7674 72.0966 35.0194 72.1891 35.1202 72.3907C35.221 72.5923 35.1286 72.8527 34.927 72.9535L31.7602 74.4739C31.7014 74.4991 31.6426 74.5159 31.5754 74.5159Z" fill="#2A5E70"/>
<path d="M33.4153 80.4221C33.2557 80.4221 33.1045 80.3381 33.0373 80.1869C32.9365 79.9769 33.0289 79.7249 33.2305 79.6241L36.3973 78.1037C36.6073 78.0029 36.8593 78.0953 36.9601 78.2969C37.0609 78.5069 36.9685 78.7589 36.7669 78.8597L33.6001 80.3801C33.5413 80.4053 33.4825 80.4221 33.4153 80.4221Z" fill="#2A5E70"/>
<path d="M54.8437 69.5186C54.7849 69.5186 54.7177 69.5018 54.6589 69.4766L51.4921 67.9562C51.2821 67.8554 51.1981 67.6034 51.2989 67.3934C51.3997 67.1834 51.6517 67.091 51.8617 67.1918L55.0285 68.7122C55.2385 68.813 55.3225 69.065 55.2217 69.275C55.1461 69.4262 55.0033 69.5102 54.8437 69.5102V69.5186Z" fill="#2A5E70"/>
<path d="M53.3991 74.5157C53.3403 74.5157 53.2731 74.4989 53.2143 74.4737L50.0475 72.9533C49.8375 72.8525 49.7535 72.6005 49.8543 72.3905C49.9551 72.1805 50.2071 72.0965 50.4171 72.1973L53.5839 73.7177C53.7939 73.8185 53.8779 74.0705 53.7771 74.2805C53.7015 74.4317 53.5587 74.5157 53.3991 74.5157Z" fill="#2A5E70"/>
<path d="M51.5592 80.422C51.5004 80.422 51.4332 80.4052 51.3744 80.38L48.2076 78.8595C47.9976 78.7587 47.9136 78.5067 48.0144 78.2967C48.1152 78.0867 48.3672 78.0028 48.5772 78.1036L51.744 79.624C51.954 79.7248 52.038 79.9768 51.9372 80.1868C51.8616 80.338 51.7188 80.422 51.5592 80.422Z" fill="#2A5E70"/>
</g>
<defs>
<clipPath id="clip0_412_774">
<rect width="84" height="84" rx="42" fill="white"/>
</clipPath>
</defs>
</svg>
