<svg width="20" height="20" viewBox="0 0 20 20" fill="none" xmlns="http://www.w3.org/2000/svg">
<mask id="mask0_64_644" style="mask-type:alpha" maskUnits="userSpaceOnUse" x="0" y="0" width="20" height="20">
<rect width="20" height="20" fill="#D9D9D9"/>
</mask>
<g mask="url(#mask0_64_644)">
<path d="M1.20837 12.0833V7.91668H2.04171V12.0833H1.20837ZM3.52087 13.75V6.25001H4.35421V13.75H3.52087ZM17.9584 12.0833V7.91668H18.7917V12.0833H17.9584ZM15.6459 13.75V6.25001H16.4792V13.75H15.6459ZM7.18754 16.6667C6.81254 16.6667 6.4931 16.5347 6.22921 16.2708C5.96532 16.007 5.83337 15.6875 5.83337 15.3125V4.68751C5.83337 4.31251 5.96532 3.99307 6.22921 3.72918C6.4931 3.46529 6.81254 3.33334 7.18754 3.33334H12.8125C13.1875 3.33334 13.507 3.46529 13.7709 3.72918C14.0348 3.99307 14.1667 4.31251 14.1667 4.68751V15.3125C14.1667 15.6875 14.0348 16.007 13.7709 16.2708C13.507 16.5347 13.1875 16.6667 12.8125 16.6667H7.18754ZM7.18754 15.8333H12.8125C12.9653 15.8333 13.0903 15.7847 13.1875 15.6875C13.2848 15.5903 13.3334 15.4653 13.3334 15.3125V4.68751C13.3334 4.53473 13.2848 4.40973 13.1875 4.31251C13.0903 4.21529 12.9653 4.16668 12.8125 4.16668H7.18754C7.03476 4.16668 6.90976 4.21529 6.81254 4.31251C6.71532 4.40973 6.66671 4.53473 6.66671 4.68751V15.3125C6.66671 15.4653 6.71532 15.5903 6.81254 15.6875C6.90976 15.7847 7.03476 15.8333 7.18754 15.8333Z" fill="white"/>
</g>
</svg>
