<svg width="205" height="28" viewBox="0 0 205 28" fill="none" xmlns="http://www.w3.org/2000/svg">
<g clip-path="url(#clip0_56_610)">
<rect width="205" height="28" fill="white"/>
<path d="M8.76391 6.70349V6.20349H8.26391H0.5V1.1897H23.6306V6.20349H15.8667H15.3667V6.70349V27.0863H8.76391V6.70349Z" fill="white" stroke="#1D4ED8"/>
<path d="M45.1566 18.6922L44.6176 18.9448L44.9595 19.4321L50.3297 27.0864H43.2915L38.5647 20.1597L38.4158 19.9415H38.1517H34.0197H33.5197V20.4415V27.0864H26.9169V15.0657H38.2149C39.5829 15.1699 40.9436 14.7841 42.0542 13.977L42.0785 13.9593L42.1006 13.9389C42.5534 13.5182 42.9083 13.0031 43.1405 12.4301C43.3695 11.8648 43.4734 11.2567 43.4453 10.6476C43.4713 10.0392 43.3665 9.4323 43.1378 8.86785C42.906 8.29562 42.5525 7.78078 42.1018 7.35915L42.0822 7.34074L42.0606 7.32456C40.9572 6.49545 39.5945 6.08821 38.218 6.17601H26.9169V1.1898H38.7852V1.1899L38.7951 1.1897C40.8975 1.14817 42.9853 1.54792 44.9241 2.36322C46.5194 3.05866 47.8692 4.21865 48.7977 5.69257C49.7269 7.16736 50.1913 8.88814 50.1305 10.631L50.1299 10.6467L50.1304 10.6624C50.1778 12.3626 49.7257 14.0394 48.8303 15.4845C47.9301 16.8775 46.6571 17.989 45.1566 18.6922Z" fill="white" stroke="#1D4ED8"/>
<path d="M83.6335 26.9759H76.8326L74.8387 22.0747L74.8383 22.0737L72.6082 16.5591L72.6075 16.5574L69.1649 7.95225L68.6977 6.78446L68.2356 7.95428L64.793 16.6696L64.7923 16.6715L62.5626 22.185L62.5621 22.1861L60.5945 27.0863H53.9317L65.3628 1.1897H72.2043L83.6335 26.9759Z" fill="white" stroke="#1D4ED8"/>
<path d="M98.0192 27.5829L98.0097 27.5827L98.0003 27.5829C95.4437 27.6323 92.9148 27.0455 90.6405 25.875C88.557 24.7485 86.8322 23.0573 85.6634 20.9949L85.6635 20.9948L85.6585 20.9864C84.4109 18.8825 83.7767 16.4707 83.8276 14.0242L83.8278 14.0138L83.8276 14.0034C83.7767 11.5569 84.4109 9.14513 85.6585 7.04125L85.6593 7.03983C86.849 5.01844 88.5728 3.36539 90.6407 2.26281C92.9115 1.07381 95.4415 0.468093 98.0037 0.499976L98.0037 0.500098L98.0148 0.499991C100.225 0.478655 102.416 0.91538 104.449 1.78273C106.146 2.53341 107.658 3.6419 108.884 5.03042L104.78 8.74332C104.037 7.91065 103.141 7.22639 102.139 6.7289C100.977 6.15215 99.7013 5.8408 98.4046 5.81733L98.4022 5.8173C96.9526 5.79807 95.5222 6.15095 94.2475 6.84225C92.987 7.5122 91.956 8.54505 91.2875 9.8074L91.2873 9.80731L91.2811 9.81985C90.6303 11.1366 90.2917 12.586 90.2917 14.0552C90.2917 15.5244 90.6303 16.9737 91.2811 18.2905L91.281 18.2906L91.285 18.2983C91.9425 19.5721 92.9785 20.6103 94.2502 21.2696C96.045 22.2383 98.1258 22.5347 100.119 22.1054C101.937 21.7139 103.573 20.7425 104.786 19.3448L108.891 23.0582C107.683 24.4737 106.165 25.593 104.452 26.3265C102.42 27.1955 100.228 27.6237 98.0192 27.5829Z" fill="white" stroke="#1D4ED8"/>
<path d="M119.555 6.70349V6.20349H119.055H111.291V1.1897H134.312V6.20349H126.548H126.048V6.70349V27.0863H119.555V6.70349Z" fill="white" stroke="#1D4ED8"/>
<path d="M144.311 27.0863H137.708V1.1897H144.311V27.0863Z" fill="white" stroke="#1D4ED8"/>
<path d="M176.989 27.0863H170.187L168.193 22.185L168.193 22.184L165.963 16.6695L165.962 16.6678L162.519 8.0626L162.057 6.90683L161.591 8.06132L158.121 16.6682L158.12 16.6697L155.918 22.184L155.916 22.187L153.923 27.0863H147.259L158.69 1.1897H165.531L176.989 27.0863Z" fill="white" stroke="#1D4ED8"/>
<path d="M197.15 15.3533L198.022 16.4073L204.5 24.6421V27.0863H198.955L187.26 12.9231L187.259 12.9221L179.909 4.06784V1.1897H185.427L197.15 15.3533ZM186.374 19.7308V27.0863H179.911L179.96 11.5159L186.374 19.7308ZM204.472 16.0178L198.035 8.23387V1.1897H204.472V16.0178Z" fill="white" stroke="#1D4ED8"/>
</g>
<defs>
<clipPath id="clip0_56_610">
<rect width="205" height="28" fill="white"/>
</clipPath>
</defs>
</svg>
