<svg width="205" height="28" viewBox="0 0 205 28" fill="none" xmlns="http://www.w3.org/2000/svg">
<g clip-path="url(#clip0_11_2)">
<path d="M8.26391 6.70343V27.5862H15.8667V6.70343H24.1306V0.689636H0V6.70343H8.26391Z" fill="white"/>
<path d="M45.3688 19.1448C46.9557 18.401 48.3017 17.2252 49.2529 15.7517C50.2014 14.2224 50.6803 12.4478 50.6302 10.6482C50.6945 8.80523 50.2034 6.98552 49.2208 5.42587C48.2382 3.86621 46.8096 2.63883 45.1209 1.90341C43.1168 1.06016 40.9586 0.646683 38.7852 0.689616H26.4169V6.67582H38.2343C39.497 6.59155 40.748 6.96349 41.7603 7.7241C42.1579 8.09611 42.4699 8.5504 42.6744 9.05539C42.879 9.56038 42.9712 10.1039 42.9447 10.6482C42.9731 11.1928 42.8817 11.7369 42.6771 12.2422C42.4724 12.7474 42.1594 13.2015 41.7603 13.5724C40.7406 14.3134 39.4902 14.6656 38.2343 14.5655H26.4169V27.5862H34.0197V20.4413H38.1517L43.0274 27.5862H51.2913L45.3688 19.1448Z" fill="white"/>
<path d="M72.5296 0.689636H65.037L53.1645 27.5862H60.9326L63.0261 22.3724L65.2573 16.8552L68.7006 8.13791L72.1439 16.7448L74.3752 22.262L76.4963 27.4758H84.4021L72.5296 0.689636Z" fill="white"/>
<path d="M90.4071 26.3172C92.7563 27.5271 95.3688 28.1338 98.0099 28.0827C100.289 28.1249 102.552 27.683 104.649 26.7862C106.582 25.9585 108.277 24.6592 109.579 23.0069L104.731 18.6206C103.565 20.1497 101.892 21.212 100.014 21.6166C98.1356 22.0211 96.1748 21.7413 94.484 20.8275C93.3026 20.216 92.34 19.2521 91.7294 18.0689C91.1126 16.8211 90.7917 15.4475 90.7917 14.0551C90.7917 12.6628 91.1126 11.2892 91.7294 10.0413C92.3514 8.86662 93.311 7.90569 94.484 7.28271C95.6841 6.6315 97.0308 6.29909 98.3956 6.31719C99.6182 6.33932 100.821 6.63287 101.916 7.1767C103.012 7.72052 103.973 8.50106 104.731 9.46202L109.579 5.07582C108.252 3.45577 106.563 2.17068 104.649 1.32409C102.551 0.428772 100.29 -0.0220608 98.0099 -4.64488e-05C95.3642 -0.0329689 92.7518 0.592653 90.4071 1.82064C88.2572 2.96658 86.4651 4.68493 85.2284 6.78616C83.9333 8.97031 83.2748 11.4741 83.3277 14.0137C83.2748 16.5534 83.9333 19.0572 85.2284 21.2413C86.4443 23.3869 88.239 25.146 90.4071 26.3172Z" fill="white"/>
<path d="M119.055 6.70343V27.5862H126.548V6.70343H134.812V0.689636H110.791V6.70343H119.055Z" fill="white"/>
<path d="M137.208 0.689636V27.5862H144.811V0.689636H137.208Z" fill="white"/>
<path d="M165.857 0.689636H158.364L146.492 27.5862H154.26L156.381 22.3724L158.584 16.8552L162.055 8.24826L165.498 16.8552L167.73 22.3724L169.851 27.5862H177.757L165.857 0.689636Z" fill="white"/>
<path d="M179.409 27.5862H186.874V19.5586L179.465 10.0689L179.409 27.5862ZM197.535 0.689636V8.41377L204.972 17.4069V0.689636H197.535ZM197.535 15.0345L185.662 0.689636H179.409V4.24826L186.874 13.2414L198.719 27.5862H205V24.4689L197.535 14.9793V15.0345Z" fill="white"/>
</g>
<defs>
<clipPath id="clip0_11_2">
<rect width="205" height="28" fill="white"/>
</clipPath>
</defs>
</svg>
