<svg width="20" height="20" viewBox="0 0 20 20" fill="none" xmlns="http://www.w3.org/2000/svg">
<mask id="mask0_23_81" style="mask-type:alpha" maskUnits="userSpaceOnUse" x="0" y="0" width="20" height="20">
<rect width="20" height="20" fill="#D9D9D9"/>
</mask>
<g mask="url(#mask0_23_81)">
<path d="M2.5 7.91666V5.52083C2.5 5.13194 2.62861 4.80916 2.88583 4.5525C3.1425 4.29528 3.46528 4.16666 3.85417 4.16666H16.1458C16.5347 4.16666 16.8578 4.29528 17.115 4.5525C17.3717 4.80916 17.5 5.13194 17.5 5.52083V7.91666H16.6667V5.52083C16.6667 5.38194 16.6144 5.26055 16.51 5.15666C16.4061 5.05222 16.2847 5 16.1458 5H3.85417C3.71528 5 3.59389 5.05222 3.49 5.15666C3.38556 5.26055 3.33333 5.38194 3.33333 5.52083V7.91666H2.5ZM3.85417 15.8333C3.46528 15.8333 3.1425 15.705 2.88583 15.4483C2.62861 15.1911 2.5 14.8681 2.5 14.4792V12.0833H3.33333V14.4792C3.33333 14.6181 3.38556 14.7394 3.49 14.8433C3.59389 14.9478 3.71528 15 3.85417 15H16.1458C16.2847 15 16.4061 14.9478 16.51 14.8433C16.6144 14.7394 16.6667 14.6181 16.6667 14.4792V12.0833H17.5V14.4792C17.5 14.8681 17.3717 15.1911 17.115 15.4483C16.8578 15.705 16.5347 15.8333 16.1458 15.8333H3.85417ZM8.33333 13.75C8.41667 13.75 8.49305 13.7292 8.5625 13.6875C8.63194 13.6458 8.68056 13.5903 8.70833 13.5208L11.6667 7.60416L12.9583 10.1875C12.9861 10.2569 13.0347 10.3125 13.1042 10.3542C13.1736 10.3958 13.25 10.4167 13.3333 10.4167H17.5V9.58333H13.6042L12.0417 6.47916C12.0139 6.40972 11.9653 6.36111 11.8958 6.33333C11.8264 6.30555 11.75 6.29166 11.6667 6.29166C11.5833 6.29166 11.5069 6.30555 11.4375 6.33333C11.3681 6.36111 11.3194 6.40972 11.2917 6.47916L8.33333 12.3958L7.04167 9.8125C7.01389 9.74305 6.96528 9.6875 6.89583 9.64583C6.82639 9.60416 6.75 9.58333 6.66667 9.58333H2.5V10.4167H6.39583L7.95833 13.5208C7.98611 13.5903 8.03472 13.6458 8.10417 13.6875C8.17361 13.7292 8.25 13.75 8.33333 13.75Z" fill="white"/>
</g>
</svg>
